<svg width="16" height="17" viewBox="0 0 16 17" fill="none" xmlns="http://www.w3.org/2000/svg">
<path d="M5.23718 0.5H4.26667C3.04632 0.5 1.94564 1.01233 1.16798 1.83364C8.33401 2.43938 14.0587 8.10547 14.7554 15.2452C15.5245 14.4735 16 13.4089 16 12.2333V11.056C14.2513 6.07728 10.2595 2.1544 5.23718 0.5Z" fill="#e3e3e3"/>
<path d="M16 5.87223V4.76667C16 2.41025 14.0897 0.5 11.7333 0.5H10.5746C12.7181 1.91498 14.5645 3.74362 16 5.87223Z" fill="#e3e3e3"/>
<path d="M0.047541 4.12759C0.0162292 4.33606 0 4.54947 0 4.76667V6.15386C1.75817 6.17126 3.4135 6.61832 4.86601 7.39507L6.35276 5.90832C4.50555 4.80165 2.35098 4.15525 0.047541 4.12759Z" fill="#e3e3e3"/>
<path d="M10.6062 10.1025L9.12558 11.5831C9.93906 13.0438 10.3092 14.7178 10.3446 16.5H11.6267C11.8803 16.5 12.1288 16.4779 12.3703 16.4354C12.3201 14.1155 11.7488 11.9501 10.6062 10.1025Z" fill="#e3e3e3"/>
<path d="M0 8.50068C4.41583 8.55688 7.99171 12.0979 8.10395 16.5H5.91633C5.65333 12.9 3.23757 10.6899 0 10.6342V8.50068Z" fill="#e3e3e3"/>
<path d="M0.0658056 12.9839C0.383209 14.7724 1.81484 16.1758 3.61759 16.4509C3.48688 14.5683 1.96037 13.0701 0.0658056 12.9839Z" fill="#e3e3e3"/>
<path d="M9.49333 8.5L7.98484 10.0085L6.47634 8.5L7.98484 6.99151L9.49333 8.5Z" fill="#e3e3e3"/>
</svg>
